<?xml version="1.0" encoding="UTF-8" standalone="no"?>
<svg
   xmlns:dc="http://purl.org/dc/elements/1.1/"
   xmlns:cc="http://creativecommons.org/ns#"
   xmlns:rdf="http://www.w3.org/1999/02/22-rdf-syntax-ns#"
   xmlns:svg="http://www.w3.org/2000/svg"
   xmlns="http://www.w3.org/2000/svg"
   xmlns:sodipodi="http://sodipodi.sourceforge.net/DTD/sodipodi-0.dtd"
   xmlns:inkscape="http://www.inkscape.org/namespaces/inkscape"
   sodipodi:docname="zcLogo.svg"
   inkscape:version="1.0 (4035a4fb49, 2020-05-01)"
   id="svg8"
   version="1.1"
   viewBox="0 0 210 297"
   height="297mm"
   width="210mm">
  <defs
     id="defs2" />
  <sodipodi:namedview
     inkscape:window-maximized="1"
     inkscape:window-y="-11"
     inkscape:window-x="-11"
     inkscape:window-height="986"
     inkscape:window-width="1920"
     showgrid="false"
     inkscape:document-rotation="0"
     inkscape:current-layer="layer2"
     inkscape:document-units="mm"
     inkscape:cy="649.47274"
     inkscape:cx="400"
     inkscape:zoom="0.98994949"
     inkscape:pageshadow="2"
     inkscape:pageopacity="0.0"
     borderopacity="1.0"
     bordercolor="#666666"
     pagecolor="#ffffff"
     id="base" />
  <metadata
     id="metadata5">
    <rdf:RDF>
      <cc:Work
         rdf:about="">
        <dc:format>image/svg+xml</dc:format>
        <dc:type
           rdf:resource="http://purl.org/dc/dcmitype/StillImage" />
        <dc:title></dc:title>
      </cc:Work>
    </rdf:RDF>
  </metadata>
  <g
     inkscape:label="Layer 2"
     id="layer2"
     inkscape:groupmode="layer">
    <path
       d="M 107.04153,59.123992 A 97.897049,97.897049 0 0 0 9.1446171,157.02091 97.897049,97.897049 0 0 0 107.04153,254.91782 97.897049,97.897049 0 0 0 204.93845,157.02091 97.897049,97.897049 0 0 0 107.04153,59.123992 Z m 5.18181,11.030359 h 9.1e-4 c 45.77018,2.649761 82.07073,40.599769 82.07095,87.034159 0,0.23074 -0.001,0.46148 -0.004,0.69224 h -82.06805 z m -10.36453,0.0091 V 157.88165 H 19.920846 c -0.0024,-0.23075 -0.0033,-0.4615 -0.0037,-0.69224 7.5e-5,-46.39062 36.232546,-84.312169 81.941614,-87.025952 z M 20.495589,167.20965 h 81.363221 v 77.00663 C 59.918909,241.71518 25.381324,209.44312 20.495589,167.20965 Z m 91.727751,0 h 81.49257 c -4.89075,42.27686 -39.49429,74.57152 -81.49257,77.01392 z"
       style="fill:#ffffff;fill-opacity:1;stroke:#ffffff;stroke-width:1.26608;stroke-linecap:round;paint-order:stroke fill markers"
       id="path844" />
    <path
       id="path864"
       d="m 20.116071,155.29299 c 0,-3.39782 0.916898,-10.87877 1.96084,-15.99844 5.677594,-27.84387 25.807346,-51.819164 52.66916,-62.730948 7.574102,-3.076745 14.081586,-4.626205 25.337239,-6.032904 l 1.53104,-0.191345 v 43.546057 43.54605 H 60.865211 20.116071 Z"
       style="fill:#ffbf00;fill-opacity:1;stroke:#ffffff;stroke-width:1.78049;stroke-linecap:round;paint-order:stroke fill markers" />
    <path
       d="m 155.20465,119.25695 a 8.1975785,8.1975776 0 0 1 -8.19759,8.19756 8.1975785,8.1975776 0 0 1 -8.19757,-8.19756 8.1975785,8.1975776 0 0 1 8.19757,-8.1976 8.1975785,8.1975776 0 0 1 8.19759,8.1976"
       style="fill:#ffffff;fill-opacity:1;stroke:#ffffff;stroke-width:1.23081;stroke-linecap:round;paint-order:stroke fill markers"
       id="path866" />
    <path
       d="m 81.586826,189.5128 q -2.800018,3.36631 -7.173081,9.75289 -5.065202,7.42475 -7.424768,10.50792 3.303392,-0.15739 5.757341,-0.15739 1.226974,0 3.649462,0.47192 2.422488,0.47192 3.649462,0.47192 1.384279,0 2.233722,0.91235 0.880905,0.88091 0.880905,2.26518 0,1.41576 -0.880905,2.29665 -0.849443,0.88091 -2.233722,0.88091 -1.226974,0 -3.649462,-0.47192 -2.422488,-0.47192 -3.649462,-0.47192 -7.078699,0 -13.433796,1.2899 -0.660679,0.12591 -1.164054,0.12591 -3.051704,0 -3.051704,-2.67418 0,-1.57305 1.573042,-3.02024 8.211292,-7.42478 17.869783,-23.12375 -4.184299,0.25168 -6.071952,0.25168 -4.656209,0 -9.564108,-0.7236 -2.800018,-0.40899 -2.800018,-3.11463 0,-1.38427 0.849444,-2.29665 0.849443,-0.94381 2.139339,-0.94381 1.541584,0 4.656213,0.37753 3.114625,0.34607 4.71913,0.34607 2.139342,0 6.418022,-0.28316 4.278679,-0.31461 6.418018,-0.31461 2.674176,0 2.674176,2.20228 0,2.54832 -2.391027,5.44271 z"
       style="font-style:normal;font-variant:normal;font-weight:normal;font-stretch:normal;font-size:36.5551px;line-height:1.25;font-family:'Comic Sans MS';-inkscape-font-specification:'Comic Sans MS';fill:#ffffff;fill-opacity:1;stroke:none;stroke-width:1.6108"
       id="path943" />
    <path
       d="m 151.50384,189.043 q -1.52522,0 -2.28784,-1.7874 -0.66731,-1.52523 -1.23927,-1.85889 -0.50047,-0.26215 -2.4785,-0.26215 -3.45564,0 -7.67387,5.29068 -5.71967,7.10191 -5.71967,13.46502 0,3.07433 1.97806,5.29068 2.0257,2.28787 4.88553,2.28787 2.45468,0 4.9332,-1.2631 1.38225,-0.71496 4.24209,-2.81216 1.3584,-1.00092 2.04953,-1.00092 1.02477,0 1.71589,0.78644 0.69114,0.76261 0.69114,1.7159 0,1.07243 -0.90563,1.88271 -6.29162,5.57666 -12.72622,5.57666 -4.93319,0 -8.34116,-3.78926 -3.28881,-3.67011 -3.28881,-8.67482 0,-8.07899 6.76826,-16.56314 5.64816,-7.07809 11.39166,-7.07809 1.16774,0 2.0972,0.11918 0.92944,0.0954 1.6444,0.33366 0.83411,-1.21543 2.1687,-1.21543 1.64439,0 2.07338,2.16869 0.3813,1.93041 0.3813,4.74256 0,0.97711 -0.5243,1.7159 -0.64346,0.92944 -1.83507,0.92944 z"
       style="font-style:normal;font-variant:normal;font-weight:normal;font-stretch:normal;font-size:27.6908px;line-height:1.25;font-family:'Comic Sans MS';-inkscape-font-specification:'Comic Sans MS';fill:#ffffff;fill-opacity:1;stroke:none;stroke-width:1.2202"
       id="path946" />
  </g>
  <g
     id="layer1"
     inkscape:groupmode="layer"
     inkscape:label="Layer 1" />
</svg>
