<?xml version="1.0" standalone="no"?>
<!DOCTYPE svg PUBLIC "-//W3C//DTD SVG 20010904//EN"
 "http://www.w3.org/TR/2001/REC-SVG-20010904/DTD/svg10.dtd">
<svg version="1.0" xmlns="http://www.w3.org/2000/svg"
 width="700.000000pt" height="700.000000pt" viewBox="0 0 700.000000 700.000000"
 preserveAspectRatio="xMidYMid meet">
<metadata>
Created by potrace 1.11, written by Peter Selinger 2001-2013
</metadata>
<g transform="translate(0.000000,700.000000) scale(0.100000,-0.100000)"
fill="#000000" stroke="none">
<path d="M3477 5734 c-1 -1 -36 -4 -77 -8 -275 -22 -538 -90 -755 -196 -332
-161 -570 -418 -709 -763 -35 -88 -90 -271 -101 -336 -3 -19 -7 -37 -9 -40 -2
-3 -7 -31 -11 -61 -3 -30 -8 -62 -10 -70 -8 -31 -23 -231 -26 -345 l-2 -80
966 -3 967 -2 0 956 0 955 -116 -3 c-63 -1 -116 -3 -117 -4z"/>
<path d="M3875 5732 c-3 -3 -5 -433 -5 -957 l0 -951 965 0 c856 1 965 2 966
16 5 103 -12 322 -37 480 -63 391 -206 693 -439 925 -126 127 -235 205 -385
278 -172 83 -400 152 -565 173 -73 9 -124 16 -150 19 -26 4 -75 7 -297 19 -27
2 -50 0 -53 -2z m932 -957 c46 -19 72 -43 85 -75 19 -47 20 -83 3 -126 -39
-102 -174 -132 -253 -56 -72 70 -67 177 12 237 50 37 97 43 153 20z"/>
<path d="M1838 3682 c-39 -2 -56 -7 -53 -15 2 -7 6 -77 9 -157 3 -80 8 -154
10 -165 2 -11 7 -47 11 -80 10 -100 53 -292 86 -394 139 -424 391 -716 780
-904 109 -53 333 -124 440 -141 20 -3 42 -7 50 -10 14 -5 67 -12 154 -22 28
-3 65 -7 84 -10 19 -2 97 -7 173 -10 l138 -5 0 955 0 956 -52 0 c-276 3 -1786
4 -1830 2z"/>
<path d="M3867 3666 c-2 -10 -1 -1863 2 -1892 1 -6 17 -10 39 -8 20 1 93 5
162 8 69 3 157 10 195 16 39 6 86 12 105 15 352 51 701 209 920 417 318 303
488 755 504 1344 l3 111 -963 0 c-685 0 -964 -3 -967 -11z"/>
</g>
</svg>
